<?xml version="1.0" encoding="UTF-8"?>
<svg xmlns="http://www.w3.org/2000/svg" viewBox="0 0 1000 700">
<defs>
<linearGradient id="g" x1="0" y1="0" x2="1" y2="1">
<stop offset="0%" stop-color="#8be35d"/>
<stop offset="100%" stop-color="#0f6f2c"/>
</linearGradient>
<linearGradient id="g2" x1="0" y1="0" x2="0" y2="1">
<stop offset="0%" stop-color="#b8f27b"/>
<stop offset="100%" stop-color="#2d9b3b"/>
</linearGradient>
</defs>

<!-- Monogram -->
<path d="M430 90 h90 c120 0 170 55 170 135 0 75-47 120-118 135v-45c45-10 72-39 72-90 0-55-36-92-112-92h-55v150l-45 22V90z" fill="url(#g)" stroke="#0d4f20" stroke-width="2"/>
<rect x="420" y="315" width="40" height="150" fill="url(#g2)"/>
<rect x="475" y="270" width="40" height="195" fill="url(#g2)"/>
<rect x="530" y="220" width="40" height="245" fill="url(#g2)"/>
<path d="M360 410 C300 470 300 555 470 560 C650 565 760 470 820 300
C760 470 630 620 430 620 C250 620 240 500 360 410z"
fill="none" stroke="#9ee35b" stroke-width="18" stroke-linecap="round"/>

<text x="605" y="505" font-family="Georgia,Times New Roman,serif" font-size="34" font-weight="700" fill="#0b4f22">RC 9549917</text>

<text x="500" y="610" text-anchor="middle"
font-family="Georgia,Times New Roman,serif"
font-size="112" fill="url(#g)" stroke="#0d4f20" stroke-width="1.5">POSITIVE</text>

<line x1="150" y1="660" x2="320" y2="660" stroke="#2d8f3d" stroke-width="2"/>
<line x1="680" y1="660" x2="850" y2="660" stroke="#2d8f3d" stroke-width="2"/>

<text x="500" y="672" text-anchor="middle"
font-family="Arial,sans-serif" font-size="36"
font-weight="700" fill="#146b2d">PROFESSIONAL SERVICES</text>
</svg>
